<?xml version="1.0" encoding="UTF-8" standalone="no"?>
<!-- Created with Inkscape (http://www.inkscape.org/) -->

<svg
   version="1.1"
   id="svg2"
   width="229.65067"
   height="241.32533"
   viewBox="0 0 229.65067 241.32533"
   sodipodi:docname="oshw-logo.ai"
   xmlns:inkscape="http://www.inkscape.org/namespaces/inkscape"
   xmlns:sodipodi="http://sodipodi.sourceforge.net/DTD/sodipodi-0.dtd"
   xmlns="http://www.w3.org/2000/svg"
   xmlns:svg="http://www.w3.org/2000/svg">
  <defs
     id="defs6">
    <clipPath
       clipPathUnits="userSpaceOnUse"
       id="clipPath16">
      <path
         d="M 0,180.994 H 172.238 V 0 H 0 Z"
         id="path14" />
    </clipPath>
  </defs>
  <sodipodi:namedview
     id="namedview4"
     pagecolor="#ffffff"
     bordercolor="#000000"
     borderopacity="0.25"
     inkscape:showpageshadow="2"
     inkscape:pageopacity="0.0"
     inkscape:pagecheckerboard="0"
     inkscape:deskcolor="#d1d1d1" />
  <g
     id="g8"
     inkscape:groupmode="layer"
     inkscape:label="oshw-logo"
     transform="matrix(1.3333333,0,0,-1.3333333,0,241.32533)">
    <g
       id="g10">
      <g
         id="g12"
         clip-path="url(#clipPath16)">
        <g
           id="g18"
           transform="translate(152.3359,123.3896)">
          <path
             d="m 0,0 -16.439,3.057 c -0.401,0.075 -0.838,0.451 -0.973,0.837 l -5.039,11.756 c -0.188,0.363 -0.153,0.933 0.08,1.271 l 9.578,13.96 c 0.229,0.336 0.184,0.847 -0.105,1.136 L -24.861,43.98 c -0.289,0.289 -0.799,0.336 -1.135,0.105 l -14.205,-9.748 c -0.336,-0.231 -0.912,-0.272 -1.278,-0.092 l -11.396,4.665 c -0.387,0.128 -0.764,0.561 -0.84,0.962 l -3.164,17.003 c -0.074,0.401 -0.469,0.729 -0.877,0.729 h -16.92 c -0.407,0 -0.803,-0.328 -0.877,-0.729 l -3.163,-17.003 c -0.076,-0.401 -0.452,-0.834 -0.841,-0.962 l -11.397,-4.665 c -0.365,-0.18 -0.942,-0.139 -1.276,0.092 l -14.205,9.748 c -0.336,0.231 -0.848,0.184 -1.135,-0.105 l -11.964,-11.963 c -0.287,-0.289 -0.336,-0.8 -0.105,-1.136 l 9.579,-13.96 c 0.23,-0.338 0.267,-0.908 0.08,-1.271 l -5.041,-11.756 c -0.133,-0.386 -0.57,-0.762 -0.973,-0.837 L -132.432,0 c -0.401,-0.076 -0.729,-0.47 -0.729,-0.878 l 0.001,-16.919 c 0,-0.408 0.328,-0.805 0.729,-0.878 l 16.035,-2.984 c 0.401,-0.073 0.831,-0.454 0.953,-0.843 l 5.005,-12.505 c 0.18,-0.367 0.138,-0.941 -0.095,-1.277 l -9.108,-13.274 c -0.23,-0.336 -0.183,-0.847 0.105,-1.136 l 11.966,-11.963 c 0.287,-0.287 0.799,-0.334 1.135,-0.106 l 13.039,8.95 c 0.335,0.23 0.898,0.248 1.25,0.042 l 5.75,-3.07 c 0.363,-0.185 0.789,-0.029 0.944,0.348 l 11.856,28.648 c 0.158,0.377 0,0.859 -0.347,1.072 l -1.439,0.88 c -0.266,0.163 -0.627,0.442 -0.91,0.698 -5.191,3.324 -8.636,9.139 -8.636,15.761 0,10.334 8.379,18.711 18.712,18.711 10.333,0 18.71,-8.377 18.71,-18.711 0,-6.622 -3.443,-12.437 -8.635,-15.761 -0.281,-0.256 -0.642,-0.535 -0.908,-0.698 l -1.439,-0.88 c -0.346,-0.213 -0.504,-0.695 -0.348,-1.072 l 11.856,-28.648 c 0.156,-0.377 0.58,-0.533 0.945,-0.348 l 5.75,3.07 c 0.351,0.206 0.914,0.188 1.25,-0.042 l 13.039,-8.95 c 0.336,-0.228 0.848,-0.181 1.135,0.106 l 11.965,11.963 c 0.289,0.289 0.335,0.8 0.105,1.136 l -9.109,13.274 c -0.231,0.336 -0.274,0.91 -0.094,1.277 l 5.006,12.505 c 0.123,0.389 0.549,0.77 0.951,0.843 l 16.035,2.984 c 0.4,0.073 0.729,0.47 0.729,0.878 L 0.729,-0.878 C 0.729,-0.47 0.4,-0.076 0,0"
             style="fill:#0099b0;fill-opacity:1;fill-rule:nonzero;stroke:none"
             id="path20" />
        </g>
        <g
           id="g22"
           transform="translate(45.5972,6.5176)">
          <path
             d="m 0,0 c 0,-2.799 -1.027,-3.117 -4.037,-3.117 -2.444,0 -3.401,1.062 -3.401,2.265 0,1.311 0.992,2.163 3.118,2.163 H 0 Z M 0,-6.305 H 3.613 V 5.949 c 0,4.426 -3.046,5.914 -7.473,5.914 -2.692,0 -4.675,-0.707 -6.056,-2.621 l 2.833,-2.16 c 0.637,1.027 1.523,1.383 3.4,1.383 C -1.098,8.465 0,7.861 0,6.162 V 4.285 h -4.994 c -3.86,0 -5.843,-2.445 -5.843,-5.312 0,-3.118 2.337,-5.491 6.339,-5.491 2.444,0 3.684,0.567 4.427,1.807 H 0 Z"
             style="fill:#0099b0;fill-opacity:1;fill-rule:evenodd;stroke:none"
             id="path24" />
        </g>
        <g
           id="g26"
           transform="translate(53.1782,0.2129)">
          <path
             d="m 0,0 h 3.612 v 10.803 c 0,2.619 1.736,3.754 3.507,3.754 0.921,0 1.523,-0.248 2.373,-0.887 l 2.62,3.117 c -1.098,0.85 -2.301,1.381 -3.754,1.381 -1.912,0 -3.542,-0.709 -4.675,-2.125 H 3.612 v 1.912 H 0 Z"
             style="fill:#0099b0;fill-opacity:1;fill-rule:evenodd;stroke:none"
             id="path28" />
        </g>
        <g
           id="g30"
           transform="translate(72.5527,14.7695)">
          <path
             d="m 0,0 c 3.365,0 3.542,-2.977 3.542,-5.563 0,-2.621 -0.177,-5.593 -3.542,-5.593 -3.4,0 -3.577,2.797 -3.577,5.593 C -3.577,-2.799 -3.4,0 0,0 M 3.542,-14.557 H 7.154 V 10.66 H 3.542 V 1.486 C 2.196,2.762 0.744,3.611 -1.098,3.611 -3.294,3.611 -4.887,2.621 -5.914,1.273 -6.906,0 -7.189,-1.168 -7.189,-5.563 c 0,-4.425 0.283,-5.593 1.275,-6.869 1.027,-1.345 2.62,-2.338 4.816,-2.338 1.842,0 3.507,0.852 4.64,2.09 z"
             style="fill:#0099b0;fill-opacity:1;fill-rule:evenodd;stroke:none"
             id="path32" />
        </g>
        <g
           id="g34"
           transform="translate(98.1426,0.2129)">
          <path
             d="M 0,0 H 3.189 L 8.926,17.955 H 5.1 L 1.666,5.383 H 1.594 L -2.479,17.955 H -5.1 L -9.172,5.383 h -0.07 l -3.436,12.572 h -3.824 L -10.766,0 h 3.188 l 3.754,12.572 h 0.07 z"
             style="fill:#0099b0;fill-opacity:1;fill-rule:evenodd;stroke:none"
             id="path36" />
        </g>
        <g
           id="g38"
           transform="translate(118.1855,6.5176)">
          <path
             d="m 0,0 c 0,-2.799 -1.027,-3.117 -4.037,-3.117 -2.443,0 -3.401,1.062 -3.401,2.265 0,1.311 0.993,2.163 3.118,2.163 H 0 Z M 0,-6.305 H 3.613 V 5.949 c 0,4.426 -3.047,5.914 -7.472,5.914 -2.692,0 -4.676,-0.707 -6.057,-2.621 l 2.834,-2.16 c 0.637,1.027 1.521,1.383 3.398,1.383 C -1.098,8.465 0,7.861 0,6.162 V 4.285 h -4.994 c -3.86,0 -5.844,-2.445 -5.844,-5.312 0,-3.118 2.338,-5.491 6.34,-5.491 2.443,0 3.684,0.567 4.428,1.807 H 0 Z"
             style="fill:#0099b0;fill-opacity:1;fill-rule:evenodd;stroke:none"
             id="path40" />
        </g>
        <g
           id="g42"
           transform="translate(125.7676,0.2129)">
          <path
             d="m 0,0 h 3.611 v 10.803 c 0,2.619 1.735,3.754 3.506,3.754 0.922,0 1.524,-0.248 2.373,-0.887 l 2.621,3.117 c -1.097,0.85 -2.302,1.381 -3.754,1.381 -1.912,0 -3.541,-0.709 -4.673,-2.125 H 3.611 v 1.912 H 0 Z"
             style="fill:#0099b0;fill-opacity:1;fill-rule:evenodd;stroke:none"
             id="path44" />
        </g>
        <g
           id="g46"
           transform="translate(141.5586,10.8027)">
          <path
             d="M 0,0 C 0.07,2.727 1.664,4.18 3.789,4.18 5.914,4.18 7.473,2.727 7.578,0 Z M 11.189,-2.977 V 0 c 0,4.639 -3.433,7.578 -7.4,7.578 -3.471,0 -7.402,-2.265 -7.402,-9.242 0,-7.367 4.285,-9.139 7.968,-9.139 2.409,0 4.709,0.85 6.481,2.905 L 8.215,-5.666 C 7.152,-6.766 5.664,-7.402 4.285,-7.402 1.805,-7.402 0,-5.914 0,-2.977 Z"
             style="fill:#0099b0;fill-opacity:1;fill-rule:evenodd;stroke:none"
             id="path48" />
        </g>
        <g
           id="g50"
           transform="translate(11.1909,37.5332)">
          <path
             d="m 0,0 c 0,-2.586 -0.212,-3.293 -0.885,-4.25 -0.532,-0.744 -1.665,-1.311 -2.904,-1.311 -1.24,0 -2.373,0.567 -2.904,1.311 -0.673,0.957 -0.886,1.664 -0.886,4.285 0,2.586 0.213,3.295 0.886,4.25 0.531,0.744 1.664,1.311 2.904,1.311 1.239,0 2.372,-0.567 2.904,-1.311 C -0.212,3.33 0,2.621 0,0 m -11.191,0.035 c 0,-3.894 0.566,-5.383 1.947,-6.906 0.992,-1.098 2.657,-2.301 5.455,-2.301 2.797,0 4.462,1.203 5.454,2.301 1.381,1.523 1.948,3.012 1.948,6.906 0,3.861 -0.567,5.348 -1.948,6.871 -0.992,1.098 -2.657,2.303 -5.454,2.303 -2.798,0 -4.463,-1.205 -5.455,-2.303 -1.381,-1.523 -1.947,-3.01 -1.947,-6.871"
             style="fill:#0099b0;fill-opacity:1;fill-rule:evenodd;stroke:none"
             id="path52" />
        </g>
        <g
           id="g54"
           transform="translate(38.2778,39.1621)">
          <path
             d="M 0,0 C 0.071,2.729 1.665,4.18 3.79,4.18 5.915,4.18 7.473,2.729 7.579,0 Z M 11.191,-2.975 V 0 c 0,4.641 -3.435,7.58 -7.401,7.58 -3.472,0 -7.402,-2.267 -7.402,-9.244 0,-7.365 4.285,-9.137 7.968,-9.137 2.409,0 4.71,0.85 6.481,2.905 l -2.621,2.23 C 7.154,-6.764 5.667,-7.402 4.286,-7.402 1.806,-7.402 0,-5.914 0,-2.975 Z"
             style="fill:#0099b0;fill-opacity:1;fill-rule:evenodd;stroke:none"
             id="path56" />
        </g>
        <g
           id="g58"
           transform="translate(52.5522,28.5742)">
          <path
             d="m 0,0 h 3.612 v 10.693 c 0,2.446 1.523,3.862 3.577,3.862 2.019,0 3.542,-1.416 3.542,-3.862 V 0 h 3.612 v 11.934 c 0,4.074 -3.187,6.234 -5.985,6.234 -1.912,0 -3.542,-0.709 -4.674,-2.125 H 3.612 v 1.912 H 0 Z"
             style="fill:#0099b0;fill-opacity:1;fill-rule:evenodd;stroke:none"
             id="path60" />
        </g>
        <g
           id="g62"
           transform="translate(76.6616,31.584)">
          <path
             d="m 0,0 c 2.302,-2.16 4.994,-3.223 7.898,-3.223 4.179,0 7.436,2.018 7.436,5.526 0,2.867 -1.486,5.135 -5.205,5.383 L 7.154,7.896 C 5.348,8.039 4.782,8.818 4.782,9.598 c 0,1.238 0.779,2.16 3.08,2.16 1.949,0 3.402,-0.674 4.818,-1.664 l 2.231,2.619 c -1.772,1.488 -3.895,2.445 -7.049,2.445 -3.789,0 -6.693,-1.877 -6.693,-5.525 0,-3.08 2.196,-4.852 5.17,-5.1 L 9.527,4.25 c 1.241,-0.105 2.196,-0.496 2.196,-1.771 0,-1.524 -1.489,-2.301 -3.542,-2.301 -2.408,0 -4.108,0.777 -5.666,2.301 z"
             style="fill:#0099b0;fill-opacity:1;fill-rule:evenodd;stroke:none"
             id="path64" />
        </g>
        <g
           id="g66"
           transform="translate(105.2422,37.5332)">
          <path
             d="m 0,0 c 0,-2.586 -0.211,-3.293 -0.885,-4.25 -0.531,-0.744 -1.664,-1.311 -2.904,-1.311 -1.238,0 -2.373,0.567 -2.902,1.311 -0.674,0.957 -0.887,1.664 -0.887,4.285 0,2.586 0.213,3.295 0.887,4.25 0.529,0.744 1.664,1.311 2.902,1.311 1.24,0 2.373,-0.567 2.904,-1.311 C -0.211,3.33 0,2.621 0,0 m -11.191,0.035 c 0,-3.894 0.568,-5.383 1.949,-6.906 0.992,-1.098 2.656,-2.301 5.453,-2.301 2.799,0 4.463,1.203 5.455,2.301 1.381,1.523 1.947,3.012 1.947,6.906 0,3.861 -0.566,5.348 -1.947,6.871 -0.992,1.098 -2.656,2.303 -5.455,2.303 -2.797,0 -4.461,-1.205 -5.453,-2.303 -1.381,-1.523 -1.949,-3.01 -1.949,-6.871"
             style="fill:#0099b0;fill-opacity:1;fill-rule:evenodd;stroke:none"
             id="path68" />
        </g>
        <g
           id="g70"
           transform="translate(111.9395,34.5938)">
          <path
             d="m 0,0 c 0,-4.072 3.188,-6.232 6.021,-6.232 1.875,0 3.506,0.709 4.639,2.125 h 0.07 v -1.914 h 3.612 V 11.936 H 10.73 V 1.24 c 0,-2.443 -1.523,-3.861 -3.542,-3.861 -2.053,0 -3.577,1.418 -3.577,3.861 V 11.936 H 0 Z"
             style="fill:#0099b0;fill-opacity:1;fill-rule:evenodd;stroke:none"
             id="path72" />
        </g>
        <g
           id="g74"
           transform="translate(130.2422,28.5742)">
          <path
             d="m 0,0 h 3.613 v 10.801 c 0,2.621 1.735,3.754 3.506,3.754 0.922,0 1.524,-0.248 2.373,-0.885 l 2.621,3.117 c -1.099,0.85 -2.3,1.381 -3.754,1.381 -1.912,0 -3.543,-0.709 -4.675,-2.125 H 3.613 v 1.912 H 0 Z"
             style="fill:#0099b0;fill-opacity:1;fill-rule:evenodd;stroke:none"
             id="path76" />
        </g>
        <g
           id="g78"
           transform="translate(153.8594,33.8496)">
          <path
             d="m 0,0 c -0.885,-1.098 -2.16,-1.877 -3.646,-1.877 -2.94,0 -4.676,1.666 -4.676,5.563 0,3.929 1.736,5.593 4.676,5.593 C -2.16,9.279 -0.885,8.5 0,7.402 l 2.656,2.373 c -1.556,1.807 -3.719,3.118 -6.445,3.118 -4.143,0 -8.145,-2.622 -8.145,-9.207 0,-6.555 4.002,-9.174 8.145,-9.174 2.726,0 4.889,1.31 6.445,3.115 z"
             style="fill:#0099b0;fill-opacity:1;fill-rule:evenodd;stroke:none"
             id="path80" />
        </g>
        <g
           id="g82"
           transform="translate(161.0469,39.1621)">
          <path
             d="M 0,0 C 0.07,2.729 1.664,4.18 3.789,4.18 5.914,4.18 7.471,2.729 7.578,0 Z M 11.191,-2.975 V 0 c 0,4.641 -3.437,7.58 -7.402,7.58 -3.473,0 -7.402,-2.267 -7.402,-9.244 0,-7.365 4.285,-9.137 7.968,-9.137 2.409,0 4.711,0.85 6.481,2.905 l -2.621,2.23 C 7.152,-6.764 5.666,-7.402 4.285,-7.402 1.805,-7.402 0,-5.914 0,-2.975 Z"
             style="fill:#0099b0;fill-opacity:1;fill-rule:evenodd;stroke:none"
             id="path84" />
        </g>
        <g
           id="g86"
           transform="translate(17.8726,0.2129)">
          <path
             d="m 0,0 v 46.316 h 3.626 v -1.877 c 1.134,1.241 2.798,2.09 4.64,2.09 2.195,0 3.79,-0.992 4.817,-2.338 0.991,-1.275 1.274,-2.443 1.274,-6.871 0,-4.39 -0.283,-5.56 -1.274,-6.834 -1.027,-1.345 -2.622,-2.338 -4.817,-2.338 -1.842,0 -3.294,0.85 -4.64,2.125 L 3.613,16.043 c 1.204,1.416 2.833,2.125 4.745,2.125 2.798,0 5.985,-2.16 5.985,-6.232 V 0 h -3.612 v 10.695 c 0,2.446 -1.523,3.862 -3.542,3.862 -2.054,0 -3.576,-1.416 -3.576,-3.862 V 0 Z m 7.168,31.76 c 3.4,0 3.577,2.799 3.577,5.56 0,2.799 -0.177,5.596 -3.577,5.596 -3.364,0 -3.542,-2.975 -3.542,-5.596 0,-2.586 0.178,-5.56 3.542,-5.56"
             style="fill:#0099b0;fill-opacity:1;fill-rule:nonzero;stroke:none"
             id="path88" />
        </g>
      </g>
    </g>
  </g>
</svg>
